<svg width="375" height="414" viewBox="0 0 375 414" fill="none" xmlns="http://www.w3.org/2000/svg">
<rect width="375" height="414" rx="10" fill="#272A34"/>
<g clip-path="url(#clip0_17590_2995)">
<path d="M218.5 91C218.5 73.8792 204.621 60 187.5 60C170.379 60 156.5 73.8792 156.5 91C156.5 108.121 170.379 122 187.5 122C204.621 122 218.5 108.121 218.5 91Z" fill="#BD47FC"/>
<path fill-rule="evenodd" clip-rule="evenodd" d="M186.878 75.7387C187.259 75.5038 187.741 75.5038 188.122 75.7387L203.56 85.2387C204.012 85.5171 204.225 86.0622 204.08 86.5734C203.935 87.0846 203.469 87.4375 202.937 87.4375H172.062C171.531 87.4375 171.065 87.0846 170.92 86.5734C170.775 86.0622 170.988 85.5171 171.44 85.2387L186.878 75.7387ZM176.258 85.0625H198.742L187.5 78.1443L176.258 85.0625Z" fill="white"/>
<path fill-rule="evenodd" clip-rule="evenodd" d="M176.812 85.0625C177.468 85.0625 178 85.5942 178 86.25V98.125C178 98.7808 177.468 99.3125 176.812 99.3125C176.157 99.3125 175.625 98.7808 175.625 98.125V86.25C175.625 85.5942 176.157 85.0625 176.812 85.0625Z" fill="white"/>
<path fill-rule="evenodd" clip-rule="evenodd" d="M183.938 85.0625C184.593 85.0625 185.125 85.5942 185.125 86.25V98.125C185.125 98.7808 184.593 99.3125 183.938 99.3125C183.282 99.3125 182.75 98.7808 182.75 98.125V86.25C182.75 85.5942 183.282 85.0625 183.938 85.0625Z" fill="white"/>
<path fill-rule="evenodd" clip-rule="evenodd" d="M191.062 85.0625C191.718 85.0625 192.25 85.5942 192.25 86.25V98.125C192.25 98.7808 191.718 99.3125 191.062 99.3125C190.407 99.3125 189.875 98.7808 189.875 98.125V86.25C189.875 85.5942 190.407 85.0625 191.062 85.0625Z" fill="white"/>
<path fill-rule="evenodd" clip-rule="evenodd" d="M198.188 85.0625C198.843 85.0625 199.375 85.5942 199.375 86.25V98.125C199.375 98.7808 198.843 99.3125 198.188 99.3125C197.532 99.3125 197 98.7808 197 98.125V86.25C197 85.5942 197.532 85.0625 198.188 85.0625Z" fill="white"/>
<path fill-rule="evenodd" clip-rule="evenodd" d="M172.062 98.125C172.062 97.4692 172.594 96.9375 173.25 96.9375H201.75C202.406 96.9375 202.938 97.4692 202.938 98.125C202.938 98.7808 202.406 99.3125 201.75 99.3125H173.25C172.594 99.3125 172.062 98.7808 172.062 98.125Z" fill="white"/>
<path fill-rule="evenodd" clip-rule="evenodd" d="M169.688 102.875C169.688 102.219 170.219 101.688 170.875 101.688H204.125C204.781 101.688 205.312 102.219 205.312 102.875C205.312 103.531 204.781 104.062 204.125 104.062H170.875C170.219 104.062 169.688 103.531 169.688 102.875Z" fill="white"/>
</g>
<path d="M89.9836 189L85.0876 173.304H88.0396L90.2476 181.2C90.5036 182.08 90.7356 182.928 90.9436 183.744C91.1516 184.56 91.3836 185.416 91.6396 186.312H91.7356C92.0076 185.416 92.2396 184.56 92.4316 183.744C92.6396 182.928 92.8636 182.08 93.1036 181.2L95.2876 173.304H98.1436L93.2716 189H89.9836ZM104.444 189.288C103.356 189.288 102.372 189.048 101.492 188.568C100.612 188.072 99.9163 187.368 99.4043 186.456C98.8923 185.528 98.6363 184.416 98.6363 183.12C98.6363 181.84 98.8923 180.736 99.4043 179.808C99.9323 178.88 100.612 178.168 101.444 177.672C102.276 177.176 103.148 176.928 104.06 176.928C105.132 176.928 106.028 177.168 106.748 177.648C107.468 178.112 108.012 178.768 108.38 179.616C108.748 180.448 108.932 181.416 108.932 182.52C108.932 183.096 108.892 183.544 108.812 183.864H101.324C101.452 184.904 101.828 185.712 102.452 186.288C103.076 186.864 103.86 187.152 104.804 187.152C105.316 187.152 105.788 187.08 106.22 186.936C106.668 186.776 107.108 186.56 107.54 186.288L108.476 188.016C107.916 188.384 107.292 188.688 106.604 188.928C105.916 189.168 105.196 189.288 104.444 189.288ZM101.3 181.992H106.532C106.532 181.08 106.332 180.368 105.932 179.856C105.532 179.328 104.932 179.064 104.132 179.064C103.444 179.064 102.828 179.32 102.284 179.832C101.756 180.328 101.428 181.048 101.3 181.992ZM111.568 189V177.216H113.848L114.04 179.304H114.136C114.552 178.536 115.056 177.952 115.648 177.552C116.24 177.136 116.848 176.928 117.472 176.928C118.032 176.928 118.48 177.008 118.816 177.168L118.336 179.568C118.128 179.504 117.936 179.456 117.76 179.424C117.584 179.392 117.368 179.376 117.112 179.376C116.648 179.376 116.16 179.56 115.648 179.928C115.136 180.28 114.696 180.904 114.328 181.8V189H111.568ZM120.522 189V177.216H123.282V189H120.522ZM121.914 175.152C121.418 175.152 121.018 175.008 120.714 174.72C120.41 174.432 120.258 174.048 120.258 173.568C120.258 173.104 120.41 172.728 120.714 172.44C121.018 172.152 121.418 172.008 121.914 172.008C122.41 172.008 122.81 172.152 123.114 172.44C123.418 172.728 123.57 173.104 123.57 173.568C123.57 174.048 123.418 174.432 123.114 174.72C122.81 175.008 122.41 175.152 121.914 175.152ZM127.283 189V179.4H125.699V177.336L127.283 177.216V175.992C127.283 174.76 127.587 173.752 128.195 172.968C128.803 172.168 129.803 171.768 131.195 171.768C131.611 171.768 132.011 171.808 132.395 171.888C132.779 171.968 133.099 172.064 133.355 172.176L132.827 174.24C132.395 174.048 131.963 173.952 131.531 173.952C130.539 173.952 130.043 174.616 130.043 175.944V177.216H132.347V179.4H130.043V189H127.283ZM135.212 193.848C134.892 193.848 134.612 193.824 134.372 193.776C134.132 193.728 133.9 193.672 133.676 193.608L134.18 191.448C134.292 191.48 134.42 191.512 134.564 191.544C134.724 191.592 134.876 191.616 135.02 191.616C135.644 191.616 136.14 191.424 136.508 191.04C136.892 190.672 137.18 190.192 137.372 189.6L137.588 188.856L132.956 177.216H135.764L137.804 183C137.98 183.512 138.148 184.056 138.308 184.632C138.484 185.192 138.66 185.752 138.836 186.312H138.932C139.076 185.768 139.22 185.216 139.364 184.656C139.524 184.08 139.676 183.528 139.82 183L141.596 177.216H144.26L139.988 189.528C139.492 190.856 138.892 191.904 138.188 192.672C137.484 193.456 136.492 193.848 135.212 193.848ZM151.347 189V173.304H156.363C157.451 173.304 158.411 173.424 159.243 173.664C160.091 173.904 160.755 174.312 161.235 174.888C161.731 175.448 161.979 176.208 161.979 177.168C161.979 177.904 161.787 178.6 161.403 179.256C161.019 179.896 160.483 180.336 159.795 180.576V180.672C160.659 180.864 161.371 181.272 161.931 181.896C162.507 182.504 162.795 183.336 162.795 184.392C162.795 185.432 162.531 186.296 162.003 186.984C161.491 187.672 160.779 188.184 159.867 188.52C158.955 188.84 157.923 189 156.771 189H151.347ZM154.131 179.784H156.123C157.211 179.784 158.003 179.584 158.499 179.184C158.995 178.784 159.243 178.248 159.243 177.576C159.243 176.808 158.987 176.264 158.475 175.944C157.963 175.624 157.195 175.464 156.171 175.464H154.131V179.784ZM154.131 186.84H156.483C157.635 186.84 158.523 186.632 159.147 186.216C159.771 185.784 160.083 185.128 160.083 184.248C160.083 183.416 159.779 182.816 159.171 182.448C158.563 182.064 157.667 181.872 156.483 181.872H154.131V186.84ZM168.284 189.288C167.26 189.288 166.42 188.968 165.764 188.328C165.124 187.688 164.804 186.856 164.804 185.832C164.804 184.568 165.356 183.592 166.46 182.904C167.564 182.2 169.324 181.72 171.74 181.464C171.724 180.84 171.556 180.304 171.236 179.856C170.932 179.392 170.38 179.16 169.58 179.16C169.004 179.16 168.436 179.272 167.876 179.496C167.332 179.72 166.796 179.992 166.268 180.312L165.26 178.464C165.916 178.048 166.652 177.688 167.468 177.384C168.3 177.08 169.18 176.928 170.108 176.928C171.58 176.928 172.676 177.368 173.396 178.248C174.132 179.112 174.5 180.368 174.5 182.016V189H172.22L172.028 187.704H171.932C171.404 188.152 170.836 188.528 170.228 188.832C169.636 189.136 168.988 189.288 168.284 189.288ZM169.172 187.128C169.652 187.128 170.084 187.016 170.468 186.792C170.868 186.552 171.292 186.232 171.74 185.832V183.192C170.14 183.4 169.028 183.712 168.404 184.128C167.78 184.528 167.468 185.024 167.468 185.616C167.468 186.144 167.628 186.528 167.948 186.768C168.268 187.008 168.676 187.128 169.172 187.128ZM177.803 189V177.216H180.083L180.275 178.8H180.371C180.899 178.288 181.475 177.848 182.099 177.48C182.723 177.112 183.435 176.928 184.235 176.928C185.499 176.928 186.419 177.336 186.995 178.152C187.571 178.968 187.859 180.12 187.859 181.608V189H185.099V181.968C185.099 180.992 184.955 180.304 184.667 179.904C184.379 179.504 183.907 179.304 183.251 179.304C182.739 179.304 182.283 179.432 181.883 179.688C181.499 179.928 181.059 180.288 180.563 180.768V189H177.803ZM191.232 189V172.056H193.944V182.64H194.016L198.384 177.216H201.408L197.376 182.016L201.816 189H198.816L195.792 183.888L193.944 186V189H191.232ZM212.032 180.648L211.48 182.568H215.488L214.936 180.648C214.68 179.816 214.432 178.96 214.192 178.08C213.968 177.2 213.744 176.328 213.52 175.464H213.424C213.216 176.344 212.992 177.224 212.752 178.104C212.528 178.968 212.288 179.816 212.032 180.648ZM206.776 189L211.888 173.304H215.152L220.264 189H217.336L216.112 184.752H210.832L209.608 189H206.776ZM226.879 189.288C225.807 189.288 224.839 189.048 223.975 188.568C223.127 188.072 222.447 187.368 221.935 186.456C221.439 185.528 221.191 184.416 221.191 183.12C221.191 181.808 221.463 180.696 222.007 179.784C222.551 178.856 223.271 178.152 224.167 177.672C225.079 177.176 226.055 176.928 227.095 176.928C227.847 176.928 228.503 177.056 229.063 177.312C229.623 177.568 230.119 177.88 230.551 178.248L229.207 180.048C228.903 179.776 228.591 179.568 228.271 179.424C227.951 179.264 227.607 179.184 227.239 179.184C226.295 179.184 225.519 179.544 224.911 180.264C224.319 180.984 224.023 181.936 224.023 183.12C224.023 184.288 224.311 185.232 224.887 185.952C225.479 186.672 226.239 187.032 227.167 187.032C227.631 187.032 228.063 186.936 228.463 186.744C228.879 186.536 229.255 186.296 229.591 186.024L230.719 187.848C230.175 188.328 229.567 188.688 228.895 188.928C228.223 189.168 227.551 189.288 226.879 189.288ZM237.379 189.288C236.307 189.288 235.339 189.048 234.475 188.568C233.627 188.072 232.947 187.368 232.435 186.456C231.939 185.528 231.691 184.416 231.691 183.12C231.691 181.808 231.963 180.696 232.507 179.784C233.051 178.856 233.771 178.152 234.667 177.672C235.579 177.176 236.555 176.928 237.595 176.928C238.347 176.928 239.003 177.056 239.563 177.312C240.123 177.568 240.619 177.88 241.051 178.248L239.707 180.048C239.403 179.776 239.091 179.568 238.771 179.424C238.451 179.264 238.107 179.184 237.739 179.184C236.795 179.184 236.019 179.544 235.411 180.264C234.819 180.984 234.523 181.936 234.523 183.12C234.523 184.288 234.811 185.232 235.387 185.952C235.979 186.672 236.739 187.032 237.667 187.032C238.131 187.032 238.563 186.936 238.963 186.744C239.379 186.536 239.755 186.296 240.091 186.024L241.219 187.848C240.675 188.328 240.067 188.688 239.395 188.928C238.723 189.168 238.051 189.288 237.379 189.288ZM247.783 189.288C246.807 189.288 245.895 189.048 245.047 188.568C244.199 188.072 243.511 187.368 242.983 186.456C242.455 185.528 242.191 184.416 242.191 183.12C242.191 181.808 242.455 180.696 242.983 179.784C243.511 178.856 244.199 178.152 245.047 177.672C245.895 177.176 246.807 176.928 247.783 176.928C248.775 176.928 249.695 177.176 250.543 177.672C251.391 178.152 252.079 178.856 252.607 179.784C253.135 180.696 253.399 181.808 253.399 183.12C253.399 184.416 253.135 185.528 252.607 186.456C252.079 187.368 251.391 188.072 250.543 188.568C249.695 189.048 248.775 189.288 247.783 189.288ZM247.783 187.032C248.647 187.032 249.327 186.672 249.823 185.952C250.319 185.232 250.567 184.288 250.567 183.12C250.567 181.936 250.319 180.984 249.823 180.264C249.327 179.544 248.647 179.184 247.783 179.184C246.919 179.184 246.239 179.544 245.743 180.264C245.263 180.984 245.023 181.936 245.023 183.12C245.023 184.288 245.263 185.232 245.743 185.952C246.239 186.672 246.919 187.032 247.783 187.032ZM259.635 189.288C258.371 189.288 257.451 188.88 256.875 188.064C256.299 187.248 256.011 186.096 256.011 184.608V177.216H258.771V184.248C258.771 185.224 258.915 185.912 259.203 186.312C259.491 186.712 259.955 186.912 260.595 186.912C261.107 186.912 261.555 186.784 261.939 186.528C262.339 186.272 262.763 185.856 263.211 185.28V177.216H265.971V189H263.715L263.499 187.272H263.427C262.915 187.88 262.355 188.368 261.747 188.736C261.139 189.104 260.435 189.288 259.635 189.288ZM269.467 189V177.216H271.747L271.939 178.8H272.035C272.563 178.288 273.139 177.848 273.763 177.48C274.387 177.112 275.099 176.928 275.899 176.928C277.163 176.928 278.083 177.336 278.659 178.152C279.235 178.968 279.523 180.12 279.523 181.608V189H276.763V181.968C276.763 180.992 276.619 180.304 276.331 179.904C276.043 179.504 275.571 179.304 274.915 179.304C274.403 179.304 273.947 179.432 273.547 179.688C273.163 179.928 272.723 180.288 272.227 180.768V189H269.467ZM287.049 189.288C285.689 189.288 284.721 188.896 284.145 188.112C283.585 187.312 283.305 186.28 283.305 185.016V179.4H281.625V177.336L283.449 177.216L283.785 174H286.089V177.216H289.089V179.4H286.089V185.016C286.089 186.392 286.641 187.08 287.745 187.08C287.953 187.08 288.169 187.056 288.393 187.008C288.617 186.944 288.809 186.88 288.969 186.816L289.449 188.856C289.129 188.968 288.761 189.064 288.345 189.144C287.945 189.24 287.513 189.288 287.049 189.288Z" fill="white"/>
<path d="M49.9467 236H55.8667V234.864H51.2907V225.504H49.9467V236ZM56.8063 232.128C56.8063 234.704 58.5023 236.192 60.4063 236.192C62.3103 236.192 64.0063 234.704 64.0063 232.128C64.0063 229.52 62.3103 228.032 60.4063 228.032C58.5023 228.032 56.8063 229.52 56.8063 232.128ZM58.1663 232.128C58.1663 230.336 59.0783 229.12 60.4063 229.12C61.7503 229.12 62.6463 230.336 62.6463 232.128C62.6463 233.904 61.7503 235.104 60.4063 235.104C59.0783 235.104 58.1663 233.904 58.1663 232.128ZM66.0542 236H67.3662V231.008C67.8942 229.696 68.6782 229.216 69.3342 229.216C69.6542 229.216 69.8302 229.264 70.0862 229.344L70.3422 228.192C70.0862 228.08 69.8462 228.032 69.5102 228.032C68.6302 228.032 67.8302 228.656 67.3022 229.632H67.2542L67.1422 228.224H66.0542V236ZM70.8688 232.128C70.8688 234.672 72.5168 236.192 74.5968 236.192C75.6528 236.192 76.4848 235.824 77.1568 235.392L76.6928 234.528C76.1168 234.896 75.4928 235.136 74.7568 235.136C73.2688 235.136 72.2608 234.08 72.1648 232.4H77.4128C77.4448 232.208 77.4608 231.952 77.4608 231.68C77.4608 229.456 76.3408 228.032 74.3568 228.032C72.5808 228.032 70.8688 229.584 70.8688 232.128ZM72.1488 231.536C72.3088 229.968 73.3008 229.072 74.3888 229.072C75.6048 229.072 76.3088 229.952 76.3088 231.536H72.1488ZM79.3823 236H80.6943V230.368C81.4143 229.568 82.0703 229.168 82.6463 229.168C83.6383 229.168 84.1023 229.792 84.1023 231.248V236H85.4143V230.368C86.1343 229.568 86.7583 229.168 87.3663 229.168C88.3423 229.168 88.8063 229.792 88.8063 231.248V236H90.1183V231.072C90.1183 229.088 89.3503 228.032 87.7503 228.032C86.8063 228.032 86.0063 228.64 85.1903 229.52C84.8703 228.592 84.2303 228.032 83.0463 228.032C82.1183 228.032 81.3023 228.608 80.6303 229.344H80.5823L80.4703 228.224H79.3823V236ZM95.9623 236H97.3063V225.504H95.9623V236ZM101.287 235.296C102.007 235.856 102.727 236.192 103.447 236.192C105.223 236.192 106.807 234.64 106.807 232C106.807 229.584 105.735 228.032 103.735 228.032C102.823 228.032 101.959 228.528 101.255 229.12H101.207L101.095 228.224H100.007V239.28H101.319V236.656L101.287 235.296ZM101.319 234.272V230.192C102.087 229.504 102.743 229.136 103.399 229.136C104.871 229.136 105.447 230.288 105.447 232C105.447 233.92 104.503 235.088 103.223 235.088C102.711 235.088 102.023 234.864 101.319 234.272ZM108.018 235.12C108.754 235.728 109.81 236.192 110.914 236.192C112.754 236.192 113.762 235.136 113.762 233.872C113.762 232.4 112.514 231.936 111.394 231.52C110.514 231.184 109.666 230.896 109.666 230.176C109.666 229.584 110.114 229.056 111.09 229.056C111.778 229.056 112.338 229.344 112.866 229.744L113.49 228.912C112.898 228.432 112.05 228.032 111.074 228.032C109.394 228.032 108.402 228.992 108.402 230.24C108.402 231.552 109.618 232.08 110.722 232.48C111.57 232.8 112.498 233.152 112.498 233.952C112.498 234.624 111.986 235.168 110.962 235.168C110.034 235.168 109.346 234.784 108.674 234.24L108.018 235.12ZM115.473 233.152C115.473 235.136 116.209 236.192 117.857 236.192C118.929 236.192 119.697 235.632 120.417 234.784H120.465L120.577 236H121.665V228.224H120.353V233.744C119.617 234.656 119.057 235.056 118.257 235.056C117.233 235.056 116.801 234.432 116.801 232.976V228.224H115.473V233.152ZM124.289 236H125.601V230.368C126.321 229.568 126.977 229.168 127.553 229.168C128.545 229.168 129.009 229.792 129.009 231.248V236H130.321V230.368C131.041 229.568 131.665 229.168 132.273 229.168C133.249 229.168 133.713 229.792 133.713 231.248V236H135.025V231.072C135.025 229.088 134.257 228.032 132.657 228.032C131.713 228.032 130.913 228.64 130.097 229.52C129.777 228.592 129.137 228.032 127.953 228.032C127.025 228.032 126.209 228.608 125.537 229.344H125.489L125.377 228.224H124.289V236ZM141.461 226.624C141.973 226.624 142.373 226.272 142.373 225.776C142.373 225.264 141.973 224.928 141.461 224.928C140.949 224.928 140.549 225.264 140.549 225.776C140.549 226.272 140.949 226.624 141.461 226.624ZM140.789 236H142.101V228.224H140.789V236ZM143.862 235.12C144.598 235.728 145.654 236.192 146.758 236.192C148.598 236.192 149.606 235.136 149.606 233.872C149.606 232.4 148.358 231.936 147.238 231.52C146.358 231.184 145.51 230.896 145.51 230.176C145.51 229.584 145.958 229.056 146.934 229.056C147.622 229.056 148.182 229.344 148.71 229.744L149.334 228.912C148.742 228.432 147.894 228.032 146.918 228.032C145.238 228.032 144.246 228.992 144.246 230.24C144.246 231.552 145.462 232.08 146.566 232.48C147.414 232.8 148.342 233.152 148.342 233.952C148.342 234.624 147.83 235.168 146.806 235.168C145.878 235.168 145.19 234.784 144.518 234.24L143.862 235.12ZM153.8 235.12C154.536 235.728 155.592 236.192 156.696 236.192C158.536 236.192 159.544 235.136 159.544 233.872C159.544 232.4 158.296 231.936 157.176 231.52C156.296 231.184 155.448 230.896 155.448 230.176C155.448 229.584 155.896 229.056 156.872 229.056C157.56 229.056 158.12 229.344 158.648 229.744L159.272 228.912C158.68 228.432 157.832 228.032 156.856 228.032C155.176 228.032 154.184 228.992 154.184 230.24C154.184 231.552 155.4 232.08 156.504 232.48C157.352 232.8 158.28 233.152 158.28 233.952C158.28 234.624 157.768 235.168 156.744 235.168C155.816 235.168 155.128 234.784 154.456 234.24L153.8 235.12ZM162.039 226.624C162.551 226.624 162.951 226.272 162.951 225.776C162.951 225.264 162.551 224.928 162.039 224.928C161.527 224.928 161.127 225.264 161.127 225.776C161.127 226.272 161.527 226.624 162.039 226.624ZM161.367 236H162.679V228.224H161.367V236ZM165.304 236H166.616V230.368C167.336 229.568 167.992 229.168 168.568 229.168C169.56 229.168 170.024 229.792 170.024 231.248V236H171.336V230.368C172.056 229.568 172.68 229.168 173.288 229.168C174.264 229.168 174.728 229.792 174.728 231.248V236H176.04V231.072C176.04 229.088 175.272 228.032 173.672 228.032C172.728 228.032 171.928 228.64 171.112 229.52C170.792 228.592 170.152 228.032 168.968 228.032C168.04 228.032 167.224 228.608 166.552 229.344H166.504L166.392 228.224H165.304V236ZM179.85 235.296C180.57 235.856 181.29 236.192 182.01 236.192C183.786 236.192 185.37 234.64 185.37 232C185.37 229.584 184.298 228.032 182.298 228.032C181.386 228.032 180.522 228.528 179.818 229.12H179.77L179.658 228.224H178.57V239.28H179.882V236.656L179.85 235.296ZM179.882 234.272V230.192C180.65 229.504 181.306 229.136 181.962 229.136C183.434 229.136 184.01 230.288 184.01 232C184.01 233.92 183.066 235.088 181.786 235.088C181.274 235.088 180.586 234.864 179.882 234.272ZM187.445 234.432C187.445 235.568 187.845 236.192 188.837 236.192C189.189 236.192 189.413 236.144 189.589 236.064L189.413 235.072C189.269 235.104 189.205 235.104 189.125 235.104C188.933 235.104 188.757 234.944 188.757 234.528V224.608H187.445V234.432ZM190.995 238.144L190.739 239.184C190.995 239.28 191.299 239.344 191.651 239.344C193.219 239.344 194.019 238.176 194.563 236.64L197.491 228.224H196.211L194.819 232.528C194.611 233.216 194.387 234.016 194.163 234.72H194.099C193.859 234 193.587 233.2 193.347 232.528L191.763 228.224H190.403L193.523 236.016L193.347 236.592C193.027 237.552 192.467 238.256 191.587 238.256C191.395 238.256 191.155 238.192 190.995 238.144ZM201.666 232.128C201.666 234.72 202.93 236.192 204.882 236.192C205.794 236.192 206.626 235.68 207.234 235.088H207.282L207.394 236H208.482V224.608H207.154V227.6L207.218 228.928C206.53 228.368 205.938 228.032 205.042 228.032C203.266 228.032 201.666 229.6 201.666 232.128ZM203.026 232.112C203.026 230.336 204.018 229.136 205.266 229.136C205.906 229.136 206.498 229.36 207.154 229.952V234.016C206.514 234.736 205.89 235.088 205.17 235.088C203.81 235.088 203.026 233.968 203.026 232.112ZM210.989 233.152C210.989 235.136 211.725 236.192 213.373 236.192C214.445 236.192 215.213 235.632 215.933 234.784H215.981L216.093 236H217.181V228.224H215.869V233.744C215.133 234.656 214.573 235.056 213.773 235.056C212.749 235.056 212.317 234.432 212.317 232.976V228.224H210.989V233.152ZM219.804 236H221.116V230.368C221.836 229.568 222.492 229.168 223.068 229.168C224.06 229.168 224.524 229.792 224.524 231.248V236H225.836V230.368C226.556 229.568 227.18 229.168 227.788 229.168C228.764 229.168 229.228 229.792 229.228 231.248V236H230.54V231.072C230.54 229.088 229.772 228.032 228.172 228.032C227.228 228.032 226.428 228.64 225.612 229.52C225.292 228.592 224.652 228.032 223.468 228.032C222.54 228.032 221.724 228.608 221.052 229.344H221.004L220.892 228.224H219.804V236ZM233.07 236H234.382V230.368C235.102 229.568 235.758 229.168 236.334 229.168C237.326 229.168 237.79 229.792 237.79 231.248V236H239.102V230.368C239.822 229.568 240.446 229.168 241.054 229.168C242.03 229.168 242.494 229.792 242.494 231.248V236H243.806V231.072C243.806 229.088 243.038 228.032 241.438 228.032C240.494 228.032 239.694 228.64 238.878 229.52C238.558 228.592 237.918 228.032 236.734 228.032C235.806 228.032 234.99 228.608 234.318 229.344H234.27L234.158 228.224H233.07V236ZM245.807 238.144L245.551 239.184C245.807 239.28 246.111 239.344 246.463 239.344C248.031 239.344 248.831 238.176 249.375 236.64L252.303 228.224H251.023L249.631 232.528C249.423 233.216 249.199 234.016 248.975 234.72H248.911C248.671 234 248.399 233.2 248.159 232.528L246.575 228.224H245.215L248.335 236.016L248.159 236.592C247.839 237.552 247.279 238.256 246.399 238.256C246.207 238.256 245.967 238.192 245.807 238.144ZM257.263 233.6C257.263 235.136 257.823 236.192 259.487 236.192C259.967 236.192 260.495 236.048 260.927 235.904L260.671 234.912C260.415 235.008 260.063 235.12 259.791 235.12C258.895 235.12 258.591 234.576 258.591 233.616V229.296H260.687V228.224H258.591V226.048H257.487L257.327 228.224L256.111 228.304V229.296H257.263V233.6ZM261.713 232.128C261.713 234.672 263.361 236.192 265.441 236.192C266.497 236.192 267.329 235.824 268.001 235.392L267.537 234.528C266.961 234.896 266.337 235.136 265.601 235.136C264.113 235.136 263.105 234.08 263.009 232.4H268.257C268.289 232.208 268.305 231.952 268.305 231.68C268.305 229.456 267.185 228.032 265.201 228.032C263.425 228.032 261.713 229.584 261.713 232.128ZM262.993 231.536C263.153 229.968 264.145 229.072 265.233 229.072C266.449 229.072 267.153 229.952 267.153 231.536H262.993ZM269.029 236H270.405L271.461 234.192C271.717 233.712 271.973 233.248 272.245 232.8H272.309C272.597 233.248 272.885 233.728 273.157 234.192L274.293 236H275.717L273.189 232.08L275.541 228.224H274.165L273.221 229.936C272.981 230.352 272.741 230.8 272.517 231.232H272.453C272.181 230.8 271.925 230.352 271.685 229.936L270.645 228.224H269.221L271.573 231.936L269.029 236ZM277.481 233.6C277.481 235.136 278.041 236.192 279.705 236.192C280.185 236.192 280.713 236.048 281.145 235.904L280.889 234.912C280.633 235.008 280.281 235.12 280.009 235.12C279.113 235.12 278.809 234.576 278.809 233.616V229.296H280.905V228.224H278.809V226.048H277.705L277.545 228.224L276.329 228.304V229.296H277.481V233.6ZM285.322 232.128C285.322 234.704 287.018 236.192 288.922 236.192C290.826 236.192 292.522 234.704 292.522 232.128C292.522 229.52 290.826 228.032 288.922 228.032C287.018 228.032 285.322 229.52 285.322 232.128ZM286.682 232.128C286.682 230.336 287.594 229.12 288.922 229.12C290.266 229.12 291.162 230.336 291.162 232.128C291.162 233.904 290.266 235.104 288.922 235.104C287.594 235.104 286.682 233.904 286.682 232.128ZM298.362 224.672C298.01 224.528 297.546 224.416 297.066 224.416C295.514 224.416 294.794 225.408 294.794 226.992V228.224L293.738 228.304V229.296H294.794V236H296.106V229.296H297.754V228.224H296.106V226.992C296.106 226 296.458 225.488 297.194 225.488C297.482 225.488 297.786 225.552 298.074 225.68L298.362 224.672ZM302.7 233.6C302.7 235.136 303.26 236.192 304.924 236.192C305.404 236.192 305.932 236.048 306.364 235.904L306.108 234.912C305.852 235.008 305.5 235.12 305.228 235.12C304.332 235.12 304.028 234.576 304.028 233.616V229.296H306.124V228.224H304.028V226.048H302.924L302.764 228.224L301.548 228.304V229.296H302.7V233.6ZM307.882 236H309.194V230.368C309.978 229.584 310.522 229.168 311.322 229.168C312.346 229.168 312.794 229.792 312.794 231.248V236H314.106V231.072C314.106 229.088 313.37 228.032 311.738 228.032C310.666 228.032 309.882 228.608 309.146 229.312L309.194 227.712V224.608H307.882V236ZM316.009 232.128C316.009 234.672 317.657 236.192 319.737 236.192C320.793 236.192 321.625 235.824 322.297 235.392L321.833 234.528C321.257 234.896 320.633 235.136 319.897 235.136C318.409 235.136 317.401 234.08 317.305 232.4H322.553C322.585 232.208 322.601 231.952 322.601 231.68C322.601 229.456 321.481 228.032 319.497 228.032C317.721 228.032 316.009 229.584 316.009 232.128ZM317.289 231.536C317.449 229.968 318.441 229.072 319.529 229.072C320.745 229.072 321.449 229.952 321.449 231.536H317.289ZM78.3108 259.296C79.0308 259.856 79.7508 260.192 80.4708 260.192C82.2468 260.192 83.8308 258.64 83.8308 256C83.8308 253.584 82.7588 252.032 80.7588 252.032C79.8468 252.032 78.9828 252.528 78.2788 253.12H78.2308L78.1188 252.224H77.0308V263.28H78.3428V260.656L78.3108 259.296ZM78.3428 258.272V254.192C79.1108 253.504 79.7668 253.136 80.4227 253.136C81.8948 253.136 82.4708 254.288 82.4708 256C82.4708 257.92 81.5268 259.088 80.2468 259.088C79.7348 259.088 79.0468 258.864 78.3428 258.272ZM85.9058 260H87.2178V255.008C87.7458 253.696 88.5298 253.216 89.1858 253.216C89.5058 253.216 89.6818 253.264 89.9378 253.344L90.1938 252.192C89.9378 252.08 89.6978 252.032 89.3618 252.032C88.4818 252.032 87.6818 252.656 87.1538 253.632H87.1058L86.9938 252.224H85.9058V260ZM92.1246 250.624C92.6366 250.624 93.0366 250.272 93.0366 249.776C93.0366 249.264 92.6366 248.928 92.1246 248.928C91.6126 248.928 91.2126 249.264 91.2126 249.776C91.2126 250.272 91.6126 250.624 92.1246 250.624ZM91.4526 260H92.7646V252.224H91.4526V260ZM95.3901 260H96.7021V254.368C97.4861 253.584 98.0301 253.168 98.8301 253.168C99.8541 253.168 100.302 253.792 100.302 255.248V260H101.614V255.072C101.614 253.088 100.878 252.032 99.2461 252.032C98.1741 252.032 97.3741 252.608 96.6381 253.344H96.5901L96.4781 252.224H95.3901V260ZM104.364 257.6C104.364 259.136 104.924 260.192 106.588 260.192C107.068 260.192 107.596 260.048 108.028 259.904L107.772 258.912C107.516 259.008 107.164 259.12 106.892 259.12C105.996 259.12 105.692 258.576 105.692 257.616V253.296H107.788V252.224H105.692V250.048H104.588L104.428 252.224L103.212 252.304V253.296H104.364V257.6ZM110.218 250.624C110.73 250.624 111.13 250.272 111.13 249.776C111.13 249.264 110.73 248.928 110.218 248.928C109.706 248.928 109.306 249.264 109.306 249.776C109.306 250.272 109.706 250.624 110.218 250.624ZM109.546 260H110.858V252.224H109.546V260ZM113.484 260H114.796V254.368C115.58 253.584 116.124 253.168 116.924 253.168C117.948 253.168 118.396 253.792 118.396 255.248V260H119.708V255.072C119.708 253.088 118.972 252.032 117.34 252.032C116.268 252.032 115.468 252.608 114.732 253.344H114.684L114.572 252.224H113.484V260ZM122.794 261.312C122.794 260.864 123.034 260.4 123.594 260C123.93 260.096 124.298 260.128 124.602 260.128H125.946C126.954 260.128 127.514 260.368 127.514 261.088C127.514 261.904 126.538 262.672 125.05 262.672C123.642 262.672 122.794 262.144 122.794 261.312ZM121.642 261.488C121.642 262.832 122.954 263.584 124.858 263.584C127.274 263.584 128.794 262.336 128.794 260.896C128.794 259.6 127.882 259.04 126.074 259.04H124.57C123.514 259.04 123.194 258.688 123.194 258.192C123.194 257.76 123.418 257.504 123.69 257.264C124.042 257.44 124.474 257.536 124.858 257.536C126.442 257.536 127.706 256.496 127.706 254.832C127.706 254.176 127.434 253.584 127.066 253.232H128.666V252.224H125.962C125.674 252.112 125.29 252.032 124.858 252.032C123.274 252.032 121.93 253.104 121.93 254.8C121.93 255.728 122.426 256.48 122.938 256.896V256.96C122.538 257.232 122.09 257.744 122.09 258.4C122.09 259.008 122.394 259.424 122.778 259.664V259.728C122.074 260.208 121.642 260.832 121.642 261.488ZM124.858 256.656C123.962 256.656 123.21 255.936 123.21 254.8C123.21 253.664 123.946 252.992 124.858 252.992C125.77 252.992 126.506 253.664 126.506 254.8C126.506 255.936 125.754 256.656 124.858 256.656ZM133.147 257.984C133.147 259.376 134.123 260.192 135.435 260.192C136.395 260.192 137.259 259.68 138.011 259.072H138.043L138.155 260H139.243V255.232C139.243 253.296 138.443 252.032 136.539 252.032C135.291 252.032 134.203 252.576 133.483 253.04L134.011 253.952C134.619 253.536 135.419 253.12 136.331 253.12C137.595 253.12 137.931 254.08 137.931 255.072C134.619 255.44 133.147 256.288 133.147 257.984ZM134.443 257.888C134.443 256.896 135.323 256.256 137.931 255.936V258.096C137.179 258.768 136.555 259.136 135.803 259.136C135.035 259.136 134.443 258.768 134.443 257.888ZM141.718 260H143.03V254.368C143.814 253.584 144.358 253.168 145.158 253.168C146.182 253.168 146.63 253.792 146.63 255.248V260H147.942V255.072C147.942 253.088 147.206 252.032 145.574 252.032C144.502 252.032 143.702 252.608 142.966 253.344H142.918L142.806 252.224H141.718V260ZM149.908 256.128C149.908 258.72 151.172 260.192 153.124 260.192C154.036 260.192 154.868 259.68 155.476 259.088H155.524L155.636 260H156.724V248.608H155.396V251.6L155.46 252.928C154.772 252.368 154.18 252.032 153.284 252.032C151.508 252.032 149.908 253.6 149.908 256.128ZM151.268 256.112C151.268 254.336 152.26 253.136 153.508 253.136C154.148 253.136 154.74 253.36 155.396 253.952V258.016C154.756 258.736 154.132 259.088 153.412 259.088C152.052 259.088 151.268 257.968 151.268 256.112ZM162.802 257.6C162.802 259.136 163.362 260.192 165.026 260.192C165.506 260.192 166.034 260.048 166.466 259.904L166.21 258.912C165.954 259.008 165.602 259.12 165.33 259.12C164.434 259.12 164.13 258.576 164.13 257.616V253.296H166.226V252.224H164.13V250.048H163.026L162.866 252.224L161.65 252.304V253.296H162.802V257.6ZM167.456 262.144L167.2 263.184C167.456 263.28 167.76 263.344 168.112 263.344C169.68 263.344 170.48 262.176 171.024 260.64L173.952 252.224H172.672L171.28 256.528C171.072 257.216 170.848 258.016 170.624 258.72H170.56C170.32 258 170.048 257.2 169.808 256.528L168.224 252.224H166.864L169.984 260.016L169.808 260.592C169.488 261.552 168.928 262.256 168.048 262.256C167.856 262.256 167.616 262.192 167.456 262.144ZM176.733 259.296C177.453 259.856 178.173 260.192 178.893 260.192C180.669 260.192 182.253 258.64 182.253 256C182.253 253.584 181.181 252.032 179.181 252.032C178.269 252.032 177.405 252.528 176.701 253.12H176.653L176.541 252.224H175.453V263.28H176.765V260.656L176.733 259.296ZM176.765 258.272V254.192C177.533 253.504 178.189 253.136 178.845 253.136C180.317 253.136 180.893 254.288 180.893 256C180.893 257.92 179.949 259.088 178.669 259.088C178.157 259.088 177.469 258.864 176.765 258.272ZM183.752 256.128C183.752 258.672 185.4 260.192 187.48 260.192C188.536 260.192 189.368 259.824 190.04 259.392L189.576 258.528C189 258.896 188.376 259.136 187.64 259.136C186.152 259.136 185.144 258.08 185.048 256.4H190.296C190.328 256.208 190.344 255.952 190.344 255.68C190.344 253.456 189.224 252.032 187.24 252.032C185.464 252.032 183.752 253.584 183.752 256.128ZM185.032 255.536C185.192 253.968 186.184 253.072 187.272 253.072C188.488 253.072 189.192 253.952 189.192 255.536H185.032ZM191.401 259.12C192.137 259.728 193.193 260.192 194.297 260.192C196.137 260.192 197.145 259.136 197.145 257.872C197.145 256.4 195.897 255.936 194.777 255.52C193.897 255.184 193.049 254.896 193.049 254.176C193.049 253.584 193.497 253.056 194.473 253.056C195.161 253.056 195.721 253.344 196.249 253.744L196.873 252.912C196.281 252.432 195.433 252.032 194.457 252.032C192.777 252.032 191.785 252.992 191.785 254.24C191.785 255.552 193.001 256.08 194.105 256.48C194.953 256.8 195.881 257.152 195.881 257.952C195.881 258.624 195.369 259.168 194.345 259.168C193.417 259.168 192.729 258.784 192.057 258.24L191.401 259.12ZM198.392 256.128C198.392 258.672 200.04 260.192 202.12 260.192C203.176 260.192 204.008 259.824 204.68 259.392L204.216 258.528C203.64 258.896 203.016 259.136 202.28 259.136C200.792 259.136 199.784 258.08 199.688 256.4H204.936C204.968 256.208 204.984 255.952 204.984 255.68C204.984 253.456 203.864 252.032 201.88 252.032C200.104 252.032 198.392 253.584 198.392 256.128ZM199.672 255.536C199.832 253.968 200.824 253.072 201.912 253.072C203.128 253.072 203.832 253.952 203.832 255.536H199.672ZM206.911 257.6C206.911 259.136 207.471 260.192 209.135 260.192C209.615 260.192 210.143 260.048 210.575 259.904L210.319 258.912C210.063 259.008 209.711 259.12 209.439 259.12C208.543 259.12 208.239 258.576 208.239 257.616V253.296H210.335V252.224H208.239V250.048H207.135L206.975 252.224L205.759 252.304V253.296H206.911V257.6ZM212.317 257.6C212.317 259.136 212.877 260.192 214.541 260.192C215.021 260.192 215.549 260.048 215.981 259.904L215.725 258.912C215.469 259.008 215.117 259.12 214.845 259.12C213.949 259.12 213.645 258.576 213.645 257.616V253.296H215.741V252.224H213.645V250.048H212.541L212.381 252.224L211.165 252.304V253.296H212.317V257.6ZM218.172 250.624C218.684 250.624 219.084 250.272 219.084 249.776C219.084 249.264 218.684 248.928 218.172 248.928C217.66 248.928 217.26 249.264 217.26 249.776C217.26 250.272 217.66 250.624 218.172 250.624ZM217.5 260H218.812V252.224H217.5V260ZM221.437 260H222.749V254.368C223.533 253.584 224.077 253.168 224.877 253.168C225.901 253.168 226.349 253.792 226.349 255.248V260H227.661V255.072C227.661 253.088 226.925 252.032 225.293 252.032C224.221 252.032 223.421 252.608 222.685 253.344H222.637L222.525 252.224H221.437V260ZM230.747 261.312C230.747 260.864 230.987 260.4 231.547 260C231.883 260.096 232.251 260.128 232.555 260.128H233.899C234.907 260.128 235.467 260.368 235.467 261.088C235.467 261.904 234.491 262.672 233.003 262.672C231.595 262.672 230.747 262.144 230.747 261.312ZM229.595 261.488C229.595 262.832 230.907 263.584 232.811 263.584C235.227 263.584 236.747 262.336 236.747 260.896C236.747 259.6 235.835 259.04 234.027 259.04H232.523C231.467 259.04 231.147 258.688 231.147 258.192C231.147 257.76 231.371 257.504 231.643 257.264C231.995 257.44 232.427 257.536 232.811 257.536C234.395 257.536 235.659 256.496 235.659 254.832C235.659 254.176 235.387 253.584 235.019 253.232H236.619V252.224H233.915C233.627 252.112 233.243 252.032 232.811 252.032C231.227 252.032 229.883 253.104 229.883 254.8C229.883 255.728 230.379 256.48 230.891 256.896V256.96C230.491 257.232 230.043 257.744 230.043 258.4C230.043 259.008 230.347 259.424 230.731 259.664V259.728C230.027 260.208 229.595 260.832 229.595 261.488ZM232.811 256.656C231.915 256.656 231.163 255.936 231.163 254.8C231.163 253.664 231.899 252.992 232.811 252.992C233.723 252.992 234.459 253.664 234.459 254.8C234.459 255.936 233.707 256.656 232.811 256.656ZM242.156 250.624C242.668 250.624 243.068 250.272 243.068 249.776C243.068 249.264 242.668 248.928 242.156 248.928C241.644 248.928 241.244 249.264 241.244 249.776C241.244 250.272 241.644 250.624 242.156 250.624ZM241.484 260H242.796V252.224H241.484V260ZM245.421 260H246.733V254.368C247.517 253.584 248.061 253.168 248.861 253.168C249.885 253.168 250.333 253.792 250.333 255.248V260H251.645V255.072C251.645 253.088 250.909 252.032 249.277 252.032C248.205 252.032 247.405 252.608 246.669 253.344H246.621L246.509 252.224H245.421V260ZM253.611 256.128C253.611 258.72 254.875 260.192 256.827 260.192C257.739 260.192 258.571 259.68 259.179 259.088H259.227L259.339 260H260.427V248.608H259.099V251.6L259.163 252.928C258.475 252.368 257.883 252.032 256.987 252.032C255.211 252.032 253.611 253.6 253.611 256.128ZM254.971 256.112C254.971 254.336 255.963 253.136 257.211 253.136C257.851 253.136 258.443 253.36 259.099 253.952V258.016C258.459 258.736 257.835 259.088 257.115 259.088C255.755 259.088 254.971 257.968 254.971 256.112ZM262.934 257.152C262.934 259.136 263.67 260.192 265.318 260.192C266.39 260.192 267.158 259.632 267.878 258.784H267.926L268.038 260H269.126V252.224H267.814V257.744C267.078 258.656 266.518 259.056 265.718 259.056C264.694 259.056 264.262 258.432 264.262 256.976V252.224H262.934V257.152ZM270.886 259.12C271.622 259.728 272.678 260.192 273.782 260.192C275.622 260.192 276.63 259.136 276.63 257.872C276.63 256.4 275.382 255.936 274.262 255.52C273.382 255.184 272.534 254.896 272.534 254.176C272.534 253.584 272.982 253.056 273.958 253.056C274.646 253.056 275.206 253.344 275.734 253.744L276.358 252.912C275.766 252.432 274.918 252.032 273.942 252.032C272.262 252.032 271.27 252.992 271.27 254.24C271.27 255.552 272.486 256.08 273.59 256.48C274.438 256.8 275.366 257.152 275.366 257.952C275.366 258.624 274.854 259.168 273.83 259.168C272.902 259.168 272.214 258.784 271.542 258.24L270.886 259.12ZM278.677 257.6C278.677 259.136 279.237 260.192 280.901 260.192C281.381 260.192 281.909 260.048 282.341 259.904L282.085 258.912C281.829 259.008 281.477 259.12 281.205 259.12C280.309 259.12 280.005 258.576 280.005 257.616V253.296H282.101V252.224H280.005V250.048H278.901L278.741 252.224L277.525 252.304V253.296H278.677V257.6ZM283.859 260H285.171V255.008C285.699 253.696 286.483 253.216 287.139 253.216C287.459 253.216 287.635 253.264 287.891 253.344L288.147 252.192C287.891 252.08 287.651 252.032 287.315 252.032C286.435 252.032 285.635 252.656 285.107 253.632H285.059L284.947 252.224H283.859V260ZM289.175 262.144L288.919 263.184C289.175 263.28 289.479 263.344 289.831 263.344C291.399 263.344 292.199 262.176 292.743 260.64L295.671 252.224H294.391L292.999 256.528C292.791 257.216 292.567 258.016 292.343 258.72H292.279C292.039 258 291.767 257.2 291.527 256.528L289.943 252.224H288.583L291.703 260.016L291.527 260.592C291.207 261.552 290.647 262.256 289.767 262.256C289.575 262.256 289.335 262.192 289.175 262.144ZM296.337 259.2C296.337 259.776 296.769 260.192 297.297 260.192C297.809 260.192 298.241 259.776 298.241 259.2C298.241 258.592 297.809 258.176 297.297 258.176C296.769 258.176 296.337 258.592 296.337 259.2Z" fill="#ADB3BF"/>
<path d="M141.812 336H143.364L146.692 325.504H145.332L143.652 331.168C143.3 332.416 143.028 333.408 142.644 334.64H142.58C142.196 333.408 141.94 332.416 141.572 331.168L139.876 325.504H138.468L141.812 336ZM147.158 332.128C147.158 334.672 148.806 336.192 150.886 336.192C151.942 336.192 152.774 335.824 153.446 335.392L152.982 334.528C152.406 334.896 151.782 335.136 151.046 335.136C149.558 335.136 148.55 334.08 148.454 332.4H153.702C153.734 332.208 153.75 331.952 153.75 331.68C153.75 329.456 152.63 328.032 150.646 328.032C148.87 328.032 147.158 329.584 147.158 332.128ZM148.438 331.536C148.598 329.968 149.59 329.072 150.678 329.072C151.894 329.072 152.598 329.952 152.598 331.536H148.438ZM155.671 336H156.983V331.008C157.511 329.696 158.295 329.216 158.951 329.216C159.271 329.216 159.447 329.264 159.703 329.344L159.959 328.192C159.703 328.08 159.463 328.032 159.127 328.032C158.247 328.032 157.447 328.656 156.919 329.632H156.871L156.759 328.224H155.671V336ZM161.89 326.624C162.402 326.624 162.802 326.272 162.802 325.776C162.802 325.264 162.402 324.928 161.89 324.928C161.378 324.928 160.978 325.264 160.978 325.776C160.978 326.272 161.378 326.624 161.89 326.624ZM161.218 336H162.53V328.224H161.218V336ZM168.948 324.672C168.596 324.528 168.132 324.416 167.652 324.416C166.1 324.416 165.38 325.408 165.38 326.992V328.224L164.324 328.304V329.296H165.38V336H166.692V329.296H168.34V328.224H166.692V326.992C166.692 326 167.044 325.488 167.78 325.488C168.068 325.488 168.372 325.552 168.66 325.68L168.948 324.672ZM169.3 338.144L169.044 339.184C169.3 339.28 169.604 339.344 169.956 339.344C171.524 339.344 172.324 338.176 172.868 336.64L175.796 328.224H174.516L173.124 332.528C172.916 333.216 172.692 334.016 172.468 334.72H172.404C172.164 334 171.892 333.2 171.652 332.528L170.068 328.224H168.708L171.828 336.016L171.652 336.592C171.332 337.552 170.772 338.256 169.892 338.256C169.7 338.256 169.46 338.192 169.3 338.144ZM180.611 336H181.875V330.512C181.875 329.408 181.779 328.288 181.715 327.232H181.779L182.915 329.392L186.707 336H188.083V325.504H186.819V330.928C186.819 332.032 186.931 333.216 186.995 334.272H186.931L185.795 332.096L181.987 325.504H180.611V336ZM190.22 332.128C190.22 334.704 191.916 336.192 193.82 336.192C195.724 336.192 197.42 334.704 197.42 332.128C197.42 329.52 195.724 328.032 193.82 328.032C191.916 328.032 190.22 329.52 190.22 332.128ZM191.58 332.128C191.58 330.336 192.492 329.12 193.82 329.12C195.164 329.12 196.06 330.336 196.06 332.128C196.06 333.904 195.164 335.104 193.82 335.104C192.492 335.104 191.58 333.904 191.58 332.128ZM200.638 336H202.174L203.262 331.84C203.47 331.104 203.63 330.368 203.806 329.584H203.87C204.062 330.368 204.206 331.088 204.398 331.824L205.518 336H207.118L209.198 328.224H207.95L206.814 332.72C206.654 333.456 206.51 334.16 206.334 334.88H206.27C206.094 334.16 205.918 333.456 205.726 332.72L204.51 328.224H203.23L202.03 332.72C201.838 333.44 201.678 334.16 201.502 334.88H201.438C201.294 334.16 201.15 333.456 200.974 332.72L199.822 328.224H198.478L200.638 336Z" fill="white"/>
<path fill-rule="evenodd" clip-rule="evenodd" d="M232.398 325.102C232.617 325.322 232.617 325.678 232.398 325.898L223.398 334.898C223.178 335.117 222.822 335.117 222.602 334.898C222.383 334.678 222.383 334.322 222.602 334.102L231.602 325.102C231.822 324.883 232.178 324.883 232.398 325.102Z" fill="white"/>
<path fill-rule="evenodd" clip-rule="evenodd" d="M224.125 325.5C224.125 325.189 224.377 324.938 224.688 324.938H232C232.311 324.938 232.562 325.189 232.562 325.5V332.812C232.562 333.123 232.311 333.375 232 333.375C231.689 333.375 231.438 333.123 231.438 332.812V326.062H224.688C224.377 326.062 224.125 325.811 224.125 325.5Z" fill="white"/>
<defs>
<clipPath id="clip0_17590_2995">
<rect width="62" height="62" fill="white" transform="translate(156.5 60)"/>
</clipPath>
</defs>
</svg>
